<svg width="16" height="16" viewBox="0 0 16 16" fill="none" xmlns="http://www.w3.org/2000/svg">
<path d="M12.9302 4.50526C13.1513 4.3947 13.1513 4.07916 12.9302 3.9686L8.30381 1.65541C8.11154 1.55929 7.88458 1.55929 7.69231 1.65541L3.06576 3.96872C2.84464 4.07929 2.84465 4.39483 3.06577 4.50538L7.68502 6.8148C7.88209 6.91332 8.11404 6.91332 8.3111 6.81479L12.9302 4.50526Z" fill="#989898"/>
<path d="M14.1504 11.8372V5.90928C14.1504 5.68627 13.9157 5.54122 13.7162 5.64095L9.06859 7.96477C8.83144 8.08335 8.68164 8.32573 8.68164 8.59087V14.5088C8.68164 14.7318 8.91633 14.8768 9.1158 14.7771L13.7725 12.4488C14.0042 12.3325 14.1504 12.0962 14.1504 11.8372Z" fill="#989898"/>
<path d="M2.22355 12.4487C1.9919 12.3326 1.8457 12.0963 1.8457 11.8372V5.90951C1.8457 5.6865 2.08039 5.54145 2.27986 5.64118L6.92748 7.9648C7.16464 8.08337 7.31445 8.32576 7.31445 8.59091V14.5088C7.31445 14.7318 7.07976 14.8769 6.88029 14.7771L2.22355 12.4487Z" fill="#989898"/>
</svg>
