<svg width="16" height="16" viewBox="0 0 16 16" fill="none" xmlns="http://www.w3.org/2000/svg">
<path fill-rule="evenodd" clip-rule="evenodd" d="M3.66349 2.81901C3.5 3.13988 3.5 3.55992 3.5 4.4V11.6C3.5 12.4401 3.5 12.8601 3.66349 13.181C3.8073 13.4632 4.03677 13.6927 4.31901 13.8365C4.63988 14 5.05992 14 5.9 14H10.1C10.9401 14 11.3601 14 11.681 13.8365C11.9632 13.6927 12.1927 13.4632 12.3365 13.181C12.5 12.8601 12.5 12.4401 12.5 11.6V6.49411C12.5 6.12723 12.5 5.94378 12.4586 5.77115C12.4218 5.6181 12.3612 5.47178 12.279 5.33757C12.1862 5.1862 12.0565 5.05648 11.7971 4.79706L9.70294 2.70294C9.44352 2.44352 9.3138 2.3138 9.16243 2.22104C9.02822 2.1388 8.8819 2.07819 8.72885 2.04145C8.55622 2 8.37277 2 8.00589 2H5.9C5.05992 2 4.63988 2 4.31901 2.16349C4.03677 2.3073 3.8073 2.53677 3.66349 2.81901ZM6 7C5.72386 7 5.5 7.22386 5.5 7.5C5.5 7.77614 5.72386 8 6 8H10C10.2761 8 10.5 7.77614 10.5 7.5C10.5 7.22386 10.2761 7 10 7H6ZM5.5 9.5C5.5 9.22386 5.72386 9 6 9H10C10.2761 9 10.5 9.22386 10.5 9.5C10.5 9.77614 10.2761 10 10 10H6C5.72386 10 5.5 9.77614 5.5 9.5ZM6 11C5.72386 11 5.5 11.2239 5.5 11.5C5.5 11.7761 5.72386 12 6 12H8C8.27614 12 8.5 11.7761 8.5 11.5C8.5 11.2239 8.27614 11 8 11H6Z" fill="#989898"/>
</svg>
