<svg width="16" height="16" viewBox="0 0 16 16" fill="none" xmlns="http://www.w3.org/2000/svg">
<path d="M6.625 14H2.875C2.3925 14 2 13.6075 2 13.125V2.875C2 2.3925 2.3925 2 2.875 2H6.625C7.1075 2 7.5 2.3925 7.5 2.875V13.125C7.5 13.6075 7.1075 14 6.625 14Z" fill="#989898"/>
<path d="M9.375 2H13.125C13.6075 2 14 2.3925 14 2.875V4.125C14 4.6075 13.6075 5 13.125 5H9.375C8.8925 5 8.5 4.6075 8.5 4.125V2.875C8.5 2.3925 8.8925 2 9.375 2Z" fill="#989898"/>
<path d="M9.375 6.5H13.125C13.6075 6.5 14 6.8925 14 7.375V8.625C14 9.1075 13.6075 9.5 13.125 9.5H9.375C8.8925 9.5 8.5 9.1075 8.5 8.625V7.375C8.5 6.8925 8.8925 6.5 9.375 6.5Z" fill="#989898"/>
<path d="M13.125 11H9.375C8.8925 11 8.5 11.3925 8.5 11.875V13.125C8.5 13.6075 8.8925 14 9.375 14H13.125C13.6075 14 14 13.6075 14 13.125V11.875C14 11.3925 13.6075 11 13.125 11Z" fill="#989898"/>
</svg>
