<svg width="24" height="24" viewBox="0 0 24 24" fill="none" xmlns="http://www.w3.org/2000/svg">
<path fill-rule="evenodd" clip-rule="evenodd" d="M18.75 9.25C18.2415 9.75853 17.9872 10.0128 17.6814 10.0692C17.5615 10.0913 17.4385 10.0913 17.3186 10.0692C17.0128 10.0128 16.7585 9.75853 16.25 9.25L14.75 7.75C14.2415 7.24147 13.9872 6.98721 13.9308 6.68139C13.9087 6.56147 13.9087 6.43853 13.9308 6.31862C13.9872 6.01279 14.2415 5.75853 14.75 5.25C15.2585 4.74147 15.5128 4.48721 15.8186 4.4308C15.9385 4.40869 16.0615 4.40869 16.1814 4.4308C16.4872 4.48721 16.7415 4.74147 17.25 5.25L18.75 6.75C19.2585 7.25853 19.5128 7.51279 19.5692 7.81862C19.5913 7.93853 19.5913 8.06147 19.5692 8.18139C19.5128 8.48721 19.2585 8.74147 18.75 9.25ZM6 20C5.05719 20 4.58579 20 4.29289 19.7071C4 19.4142 4 18.9428 4 18V16.8284C4 16.4197 4 16.2153 4.07612 16.0315C4.15224 15.8478 4.29676 15.7032 4.58579 15.4142L11.0858 8.91422C11.7525 8.24755 12.0858 7.91422 12.5 7.91422C12.9142 7.91422 13.2475 8.24755 13.9142 8.91421L15.0858 10.0858C15.7525 10.7525 16.0858 11.0858 16.0858 11.5C16.0858 11.9142 15.7525 12.2475 15.0858 12.9142L8.58579 19.4142C8.29676 19.7032 8.15224 19.8478 7.96847 19.9239C7.7847 20 7.58032 20 7.17157 20H6Z" fill="#666666"/>
</svg>
