<svg width="24" height="24" viewBox="0 0 24 24" fill="none" xmlns="http://www.w3.org/2000/svg">
<path d="M8.79952 3.34749L8.34952 2.56807V2.56807L8.79952 3.34749ZM11.1679 2.20618L10.9807 1.32585L11.1679 2.20618ZM6.10625 4.90245L6.55625 5.68187V5.68187L6.10625 4.90245ZM3.93367 6.38285L3.26484 5.78063L3.26484 5.78063L3.93367 6.38285ZM3.10202 7.82331L2.24607 7.54519H2.24607L3.10202 7.82331ZM3.10202 16.1766L2.24607 16.4548H2.24607L3.10202 16.1766ZM3.93367 17.6171L4.6025 17.0149L4.6025 17.0149L3.93367 17.6171ZM6.10625 19.0975L6.55625 18.3181L6.10625 19.0975ZM8.79952 20.6525L9.36174 19.9497L9.30853 19.9071L9.24952 19.873L8.79952 20.6525ZM8.79953 20.6525L8.23731 21.3552L8.29052 21.3978L8.34953 21.4319L8.79953 20.6525ZM11.1679 21.7938L11.355 20.9134H11.355L11.1679 21.7938ZM12.8312 21.7938L12.644 20.9134H12.644L12.8312 21.7938ZM15.1995 20.6525L14.7495 19.873L15.1995 20.6525ZM17.8928 19.0975L17.4428 18.3181L17.8928 19.0975ZM20.0654 17.6171L19.3965 17.0149L19.3965 17.0149L20.0654 17.6171ZM20.897 16.1766L21.753 16.4548V16.4548L20.897 16.1766ZM20.897 7.82331L21.753 7.54519V7.54519L20.897 7.82331ZM20.0654 6.38285L19.3965 6.98507V6.98507L20.0654 6.38285ZM17.8928 4.90245L18.3428 4.12303L17.8928 4.90245ZM15.1995 3.34749L14.7495 4.12692H14.7495L15.1995 3.34749ZM12.8312 2.20618L12.644 3.08652L12.8312 2.20618ZM9.24952 4.12692C10.4679 3.4235 10.9078 3.18156 11.355 3.08652L10.9807 1.32585C10.1885 1.49424 9.46271 1.92537 8.34952 2.56807L9.24952 4.12692ZM6.55625 5.68187L9.24952 4.12692L8.34952 2.56807L5.65625 4.12303L6.55625 5.68187ZM4.6025 6.98507C4.90839 6.64534 5.3379 6.38529 6.55625 5.68187L5.65625 4.12303C4.54305 4.76573 3.80679 5.17874 3.26484 5.78063L4.6025 6.98507ZM3.95797 8.10142C4.09222 7.68825 4.31181 7.30791 4.6025 6.98507L3.26484 5.78063C2.80536 6.29094 2.45827 6.89212 2.24607 7.54519L3.95797 8.10142ZM3.80625 10.445C3.80625 9.03818 3.81671 8.5362 3.95797 8.10142L2.24607 7.54519C1.99579 8.31547 2.00625 9.15961 2.00625 10.445H3.80625ZM3.80625 13.5549L3.80625 10.445H2.00625L2.00625 13.5549H3.80625ZM3.95797 15.8985C3.81671 15.4637 3.80625 14.9618 3.80625 13.5549H2.00625C2.00625 14.8403 1.99579 15.6845 2.24607 16.4548L3.95797 15.8985ZM4.6025 17.0149C4.31181 16.692 4.09222 16.3117 3.95797 15.8985L2.24607 16.4548C2.45827 17.1078 2.80536 17.709 3.26484 18.2193L4.6025 17.0149ZM6.55625 18.3181C5.3379 17.6147 4.90839 17.3546 4.6025 17.0149L3.26484 18.2193C3.80679 18.8212 4.54305 19.2342 5.65625 19.8769L6.55625 18.3181ZM9.24952 19.873L6.55625 18.3181L5.65625 19.8769L8.34952 21.4319L9.24952 19.873ZM9.36176 19.9497L9.36174 19.9497L8.23729 21.3552L8.23731 21.3552L9.36176 19.9497ZM11.355 20.9134C10.9078 20.8184 10.4679 20.5764 9.24953 19.873L8.34953 21.4319C9.46272 22.0746 10.1885 22.5057 10.9807 22.6741L11.355 20.9134ZM12.644 20.9134C12.2191 21.0038 11.7799 21.0038 11.355 20.9134L10.9807 22.6741C11.6524 22.8169 12.3466 22.8169 13.0183 22.6741L12.644 20.9134ZM14.7495 19.873C13.5312 20.5764 13.0912 20.8184 12.644 20.9134L13.0183 22.6741C13.8105 22.5057 14.5363 22.0746 15.6495 21.4319L14.7495 19.873ZM17.4428 18.3181L14.7495 19.873L15.6495 21.4319L18.3428 19.8769L17.4428 18.3181ZM19.3965 17.0149C19.0906 17.3546 18.6611 17.6147 17.4428 18.3181L18.3428 19.8769C19.456 19.2342 20.1922 18.8212 20.7342 18.2193L19.3965 17.0149ZM20.0411 15.8985C19.9068 16.3117 19.6872 16.692 19.3965 17.0149L20.7342 18.2193C21.1937 17.709 21.5408 17.1078 21.753 16.4548L20.0411 15.8985ZM20.1928 13.5549C20.1928 14.9618 20.1823 15.4637 20.0411 15.8985L21.753 16.4548C22.0032 15.6845 21.9928 14.8403 21.9928 13.5549H20.1928ZM20.1928 10.445V13.5549H21.9928V10.445H20.1928ZM20.0411 8.10142C20.1823 8.5362 20.1928 9.03819 20.1928 10.445H21.9928C21.9928 9.15961 22.0032 8.31547 21.753 7.54519L20.0411 8.10142ZM19.3965 6.98507C19.6872 7.30791 19.9068 7.68825 20.0411 8.10142L21.753 7.54519C21.5408 6.89212 21.1937 6.29094 20.7342 5.78063L19.3965 6.98507ZM17.4428 5.68187C18.6611 6.38529 19.0906 6.64534 19.3965 6.98507L20.7342 5.78063C20.1922 5.17874 19.456 4.76573 18.3428 4.12303L17.4428 5.68187ZM14.7495 4.12692L17.4428 5.68187L18.3428 4.12303L15.6495 2.56807L14.7495 4.12692ZM12.644 3.08652C13.0912 3.18156 13.5312 3.4235 14.7495 4.12692L15.6495 2.56807C14.5363 1.92537 13.8105 1.49424 13.0183 1.32585L12.644 3.08652ZM11.355 3.08652C11.7799 2.99619 12.2191 2.99619 12.644 3.08652L13.0183 1.32585C12.3466 1.18308 11.6524 1.18308 10.9807 1.32585L11.355 3.08652ZM14.5995 12C14.5995 13.4359 13.4355 14.6 11.9995 14.6V16.4C14.4296 16.4 16.3995 14.43 16.3995 12H14.5995ZM11.9995 9.39996C13.4355 9.39996 14.5995 10.564 14.5995 12H16.3995C16.3995 9.56991 14.4296 7.59996 11.9995 7.59996V9.39996ZM9.39954 12C9.39954 10.564 10.5636 9.39996 11.9995 9.39996V7.59996C9.56949 7.59996 7.59954 9.56991 7.59954 12H9.39954ZM11.9995 14.6C10.5636 14.6 9.39954 13.4359 9.39954 12H7.59954C7.59954 14.43 9.56949 16.4 11.9995 16.4V14.6Z" fill="#666666"/>
</svg>
