<svg width="24" height="24" viewBox="0 0 24 24" fill="none" xmlns="http://www.w3.org/2000/svg">
<path fill-rule="evenodd" clip-rule="evenodd" d="M16 2.5H19C19.4865 2.5 19.7762 2.50081 19.9922 2.51555C20.1259 2.52467 20.1827 2.53687 20.1974 2.54061C20.315 2.59116 20.4088 2.68495 20.4594 2.80262C20.4631 2.81733 20.4753 2.87414 20.4844 3.0078C20.4992 3.22381 20.5 3.51354 20.5 4C20.5 4.48646 20.4992 4.77619 20.4844 4.9922C20.4753 5.12586 20.4631 5.18267 20.4594 5.19738C20.4088 5.31505 20.315 5.40884 20.1974 5.45939C20.1827 5.46313 20.1259 5.47533 19.9922 5.48445C19.7762 5.49919 19.4865 5.5 19 5.5H16C15.5135 5.5 15.2238 5.49919 15.0078 5.48445C14.8741 5.47533 14.8173 5.46313 14.8026 5.45939C14.685 5.40884 14.5912 5.31505 14.5406 5.19738C14.5369 5.18267 14.5247 5.12587 14.5156 4.9922C14.5008 4.77619 14.5 4.48646 14.5 4C14.5 3.51354 14.5008 3.22381 14.5156 3.0078C14.5247 2.87413 14.5369 2.81733 14.5406 2.80262C14.5912 2.68495 14.685 2.59116 14.8026 2.54061C14.8173 2.53687 14.8741 2.52467 15.0078 2.51555C15.2238 2.50081 15.5135 2.5 16 2.5ZM13.0047 3.25C13.0149 2.78581 13.0477 2.48702 13.1522 2.23463C13.3552 1.74458 13.7446 1.35523 14.2346 1.15224C14.6022 1 15.0681 1 16 1H19C19.9319 1 20.3978 1 20.7654 1.15224C21.2554 1.35523 21.6448 1.74458 21.8478 2.23463C22 2.60218 22 3.06812 22 4C22 4.93188 22 5.39782 21.8478 5.76537C21.6448 6.25542 21.2554 6.64477 20.7654 6.84776C20.3978 7 19.9319 7 19 7H16C15.0681 7 14.6022 7 14.2346 6.84776C13.7446 6.64477 13.3552 6.25542 13.1522 5.76537C13.0477 5.51298 13.0149 5.21419 13.0047 4.75H10.5C9.04155 4.75 8.30791 5.00275 7.90533 5.40533C7.55164 5.75902 7.3136 6.36824 7.261 7.5H7.8C8.9201 7.5 9.48016 7.5 9.90798 7.71799C10.2843 7.90973 10.5903 8.21569 10.782 8.59202C11 9.01984 11 9.5799 11 10.7V11.25H13.0047C13.0149 10.7858 13.0477 10.487 13.1522 10.2346C13.3552 9.74458 13.7446 9.35523 14.2346 9.15224C14.6022 9 15.0681 9 16 9H19C19.9319 9 20.3978 9 20.7654 9.15224C21.2554 9.35523 21.6448 9.74458 21.8478 10.2346C22 10.6022 22 11.0681 22 12C22 12.9319 22 13.3978 21.8478 13.7654C21.6448 14.2554 21.2554 14.6448 20.7654 14.8478C20.3978 15 19.9319 15 19 15H16C15.0681 15 14.6022 15 14.2346 14.8478C13.7446 14.6448 13.3552 14.2554 13.1522 13.7654C13.0477 13.513 13.0149 13.2142 13.0047 12.75H11V13.3C11 14.4201 11 14.9802 10.782 15.408C10.5903 15.7843 10.2843 16.0903 9.90798 16.282C9.48016 16.5 8.9201 16.5 7.8 16.5H7.261C7.3136 17.6318 7.55164 18.241 7.90533 18.5947C8.30791 18.9972 9.04155 19.25 10.5 19.25H13.0047C13.0149 18.7858 13.0477 18.487 13.1522 18.2346C13.3552 17.7446 13.7446 17.3552 14.2346 17.1522C14.6022 17 15.0681 17 16 17H19C19.9319 17 20.3978 17 20.7654 17.1522C21.2554 17.3552 21.6448 17.7446 21.8478 18.2346C22 18.6022 22 19.0681 22 20C22 20.9319 22 21.3978 21.8478 21.7654C21.6448 22.2554 21.2554 22.6448 20.7654 22.8478C20.3978 23 19.9319 23 19 23H16C15.0681 23 14.6022 23 14.2346 22.8478C13.7446 22.6448 13.3552 22.2554 13.1522 21.7654C13.0477 21.513 13.0149 21.2142 13.0047 20.75H10.5C8.95845 20.75 7.69209 20.5028 6.84467 19.6553C6.09075 18.9014 5.81186 17.8159 5.7595 16.5H5.2C4.0799 16.5 3.51984 16.5 3.09202 16.282C2.71569 16.0903 2.40973 15.7843 2.21799 15.408C2 14.9802 2 14.4201 2 13.3V10.7C2 9.5799 2 9.01984 2.21799 8.59202C2.40973 8.21569 2.71569 7.90973 3.09202 7.71799C3.51984 7.5 4.0799 7.5 5.2 7.5H5.7595C5.81186 6.18411 6.09075 5.09859 6.84467 4.34467C7.69209 3.49725 8.95845 3.25 10.5 3.25H13.0047ZM7.8 9H5.2C4.6152 9 4.26681 9.00117 4.00855 9.02227C3.85093 9.03514 3.78468 9.05214 3.76692 9.05765C3.67765 9.10469 3.60469 9.17765 3.55765 9.26693C3.55214 9.28468 3.53514 9.35093 3.52227 9.50855C3.50117 9.76681 3.5 10.1152 3.5 10.7V13.3C3.5 13.8848 3.50117 14.2332 3.52227 14.4914C3.53514 14.6491 3.55214 14.7153 3.55765 14.7331C3.60469 14.8224 3.67765 14.8953 3.76693 14.9424C3.78468 14.9479 3.85093 14.9649 4.00855 14.9777C4.26681 14.9988 4.6152 15 5.2 15H7.8C8.3848 15 8.73319 14.9988 8.99145 14.9777C9.14907 14.9649 9.21532 14.9479 9.23308 14.9424C9.32235 14.8953 9.39531 14.8224 9.44235 14.7331C9.44786 14.7153 9.46486 14.6491 9.47773 14.4914C9.49883 14.2332 9.5 13.8848 9.5 13.3V10.7C9.5 10.1152 9.49883 9.76681 9.47773 9.50855C9.46485 9.35093 9.44786 9.28468 9.44235 9.26692C9.39531 9.17765 9.32235 9.10469 9.23308 9.05765C9.21532 9.05214 9.14907 9.03514 8.99145 9.02227C8.73319 9.00117 8.3848 9 7.8 9ZM9.23825 9.05945L9.23522 9.05833C9.23736 9.05904 9.23831 9.05943 9.23825 9.05945ZM9.44055 9.26175C9.44057 9.26169 9.44096 9.26264 9.44167 9.26478L9.44055 9.26175ZM9.44055 14.7383L9.44167 14.7352C9.44096 14.7374 9.44057 14.7383 9.44055 14.7383ZM9.23825 14.9405C9.23831 14.9406 9.23736 14.941 9.23522 14.9417L9.23825 14.9405ZM3.76175 14.9405L3.76478 14.9417L3.76259 14.9409C3.76199 14.9407 3.76172 14.9406 3.76175 14.9405ZM3.55945 14.7383C3.55943 14.7383 3.55904 14.7374 3.55833 14.7352L3.55945 14.7383ZM3.55945 9.26175L3.55833 9.26478C3.55904 9.26264 3.55943 9.26169 3.55945 9.26175ZM3.76175 9.05945C3.76169 9.05943 3.76264 9.05904 3.76478 9.05833L3.76175 9.05945ZM19 10.5H16C15.5135 10.5 15.2238 10.5008 15.0078 10.5156C14.8741 10.5247 14.8173 10.5369 14.8026 10.5406C14.685 10.5912 14.5912 10.685 14.5406 10.8026C14.5369 10.8173 14.5247 10.8741 14.5156 11.0078C14.5008 11.2238 14.5 11.5135 14.5 12C14.5 12.4865 14.5008 12.7762 14.5156 12.9922C14.5247 13.1259 14.5369 13.1827 14.5406 13.1974C14.5912 13.315 14.685 13.4088 14.8026 13.4594C14.8173 13.4631 14.8741 13.4753 15.0078 13.4844C15.2238 13.4992 15.5135 13.5 16 13.5H19C19.4865 13.5 19.7762 13.4992 19.9922 13.4844C20.1259 13.4753 20.1827 13.4631 20.1974 13.4594C20.315 13.4088 20.4088 13.315 20.4594 13.1974C20.4631 13.1827 20.4753 13.1259 20.4844 12.9922C20.4992 12.7762 20.5 12.4865 20.5 12C20.5 11.5135 20.4992 11.2238 20.4844 11.0078C20.4753 10.8741 20.4631 10.8173 20.4594 10.8026C20.4088 10.685 20.315 10.5912 20.1974 10.5406C20.1827 10.5369 20.1259 10.5247 19.9922 10.5156C19.7762 10.5008 19.4865 10.5 19 10.5ZM16 18.5H19C19.4865 18.5 19.7762 18.5008 19.9922 18.5156C20.1259 18.5247 20.1827 18.5369 20.1974 18.5406C20.315 18.5912 20.4088 18.685 20.4594 18.8026C20.4631 18.8173 20.4753 18.8741 20.4844 19.0078C20.4992 19.2238 20.5 19.5135 20.5 20C20.5 20.4865 20.4992 20.7762 20.4844 20.9922C20.4753 21.1259 20.4631 21.1827 20.4594 21.1974C20.4088 21.315 20.315 21.4088 20.1974 21.4594C20.1827 21.4631 20.1259 21.4753 19.9922 21.4844C19.7762 21.4992 19.4865 21.5 19 21.5H16C15.5135 21.5 15.2238 21.4992 15.0078 21.4844C14.8741 21.4753 14.8173 21.4631 14.8026 21.4594C14.685 21.4088 14.5912 21.315 14.5406 21.1974C14.5369 21.1827 14.5247 21.1259 14.5156 20.9922C14.5008 20.7762 14.5 20.4865 14.5 20C14.5 19.5135 14.5008 19.2238 14.5156 19.0078C14.5247 18.8741 14.5369 18.8173 14.5406 18.8026C14.5912 18.685 14.685 18.5912 14.8026 18.5406C14.8173 18.5369 14.8741 18.5247 15.0078 18.5156C15.2238 18.5008 15.5135 18.5 16 18.5Z" fill="#666666"/>
</svg>
