<svg width="24" height="24" viewBox="0 0 24 24" fill="none" xmlns="http://www.w3.org/2000/svg">
<path fill-rule="evenodd" clip-rule="evenodd" d="M3.7002 7C4.52862 7 5.2002 6.32843 5.2002 5.5C5.2002 4.67157 4.52862 4 3.7002 4C2.87177 4 2.2002 4.67157 2.2002 5.5C2.2002 6.32843 2.87177 7 3.7002 7ZM8.2002 4.6C7.70314 4.6 7.3002 5.00294 7.3002 5.5C7.3002 5.99706 7.70314 6.4 8.2002 6.4L21.2002 6.4C21.6973 6.4 22.1002 5.99706 22.1002 5.5C22.1002 5.00294 21.6973 4.6 21.2002 4.6L8.2002 4.6ZM8.2002 11.1C7.70314 11.1 7.3002 11.5029 7.3002 12C7.3002 12.4971 7.70314 12.9 8.2002 12.9L21.2002 12.9C21.6973 12.9 22.1002 12.4971 22.1002 12C22.1002 11.5029 21.6973 11.1 21.2002 11.1L8.2002 11.1ZM7.3002 18.5C7.3002 18.0029 7.70314 17.6 8.2002 17.6L21.2002 17.6C21.6973 17.6 22.1002 18.0029 22.1002 18.5C22.1002 18.9971 21.6973 19.4 21.2002 19.4L8.2002 19.4C7.70314 19.4 7.3002 18.9971 7.3002 18.5ZM5.2002 12C5.2002 12.8284 4.52862 13.5 3.7002 13.5C2.87177 13.5 2.2002 12.8284 2.2002 12C2.2002 11.1716 2.87177 10.5 3.7002 10.5C4.52862 10.5 5.2002 11.1716 5.2002 12ZM3.7002 20C4.52862 20 5.2002 19.3284 5.2002 18.5C5.2002 17.6716 4.52862 17 3.7002 17C2.87177 17 2.2002 17.6716 2.2002 18.5C2.2002 19.3284 2.87177 20 3.7002 20Z" fill="#666666"/>
</svg>
