<svg width="20" height="20" viewBox="0 0 20 20" fill="none" xmlns="http://www.w3.org/2000/svg">
<g clip-path="url(#clip0)">
<path fill-rule="evenodd" clip-rule="evenodd" d="M13.7959 18.5311H6.20442C3.43943 18.5311 2.05693 18.5311 1.25521 17.9502C0.555856 17.4435 0.103727 16.6644 0.010778 15.8058C-0.0957761 14.8216 0.590134 13.6212 1.96196 11.2205L5.75771 4.57796C7.14802 2.14491 7.84318 0.928389 8.75306 0.521338C9.54658 0.166349 10.4538 0.166349 11.2473 0.521337C12.1572 0.928386 12.8523 2.1449 14.2426 4.57793L14.2426 4.57794L14.2426 4.57796L18.0384 11.2205L18.0384 11.2205C19.4102 13.6212 20.0961 14.8216 19.9896 15.8058C19.8966 16.6644 19.4445 17.4435 18.7451 17.9502C17.9434 18.5311 16.5609 18.5311 13.7959 18.5311ZM11.0806 6.45224C10.9676 6.31745 10.83 6.25006 10.6676 6.25006H9.33347C9.17111 6.25006 9.03346 6.31745 8.92052 6.45224C8.80758 6.58703 8.75464 6.7456 8.76169 6.92796L9.01582 11.3997C9.02993 11.59 9.09699 11.7525 9.21699 11.8873C9.337 12.0142 9.4817 12.0776 9.65112 12.0776H10.35C10.5194 12.0776 10.6641 12.0142 10.7841 11.8873C10.9111 11.7525 10.9782 11.59 10.9853 11.3997L11.2394 6.92796C11.2535 6.7456 11.2006 6.58703 11.0806 6.45224ZM10.8794 13.2312C10.7594 13.0964 10.6182 13.0291 10.4558 13.0291H9.54523C9.38288 13.0291 9.2417 13.0964 9.1217 13.2312C9.0017 13.366 8.9417 13.5246 8.9417 13.707V14.254C8.9417 14.4364 9.0017 14.595 9.1217 14.7297C9.2417 14.8645 9.38288 14.9319 9.54523 14.9319H10.4558C10.6182 14.9319 10.7594 14.8645 10.8794 14.7297C10.9994 14.595 11.0594 14.4364 11.0594 14.254V13.707C11.0594 13.5246 10.9994 13.366 10.8794 13.2312Z" fill="#F2924C"/>
</g>
<defs>
<clipPath id="clip0">
<rect width="20" height="20" fill="white"/>
</clipPath>
</defs>
</svg>
