<svg width="16" height="16" viewBox="0 0 16 16" fill="none" xmlns="http://www.w3.org/2000/svg">
<path fill-rule="evenodd" clip-rule="evenodd" d="M5.25 2.5C5.25 1.5335 6.0335 0.75 7 0.75H9C9.9665 0.75 10.75 1.5335 10.75 2.5V3.25H12.5H14C14.4142 3.25 14.75 3.58579 14.75 4C14.75 4.41421 14.4142 4.75 14 4.75H13.2134L12.8441 12.1373C12.7709 13.6009 11.5629 14.75 10.0975 14.75H5.9025C4.43709 14.75 3.22911 13.6009 3.15593 12.1373L2.78656 4.75H2C1.58579 4.75 1.25 4.41421 1.25 4C1.25 3.58579 1.58579 3.25 2 3.25H3.5H5.25V2.5ZM6.75 3.25H9.25V2.5C9.25 2.36193 9.13807 2.25 9 2.25H7C6.86193 2.25 6.75 2.36193 6.75 2.5V3.25ZM6.99906 6.46255C6.97838 6.04885 6.62624 5.73025 6.21255 5.75094C5.79885 5.77162 5.48025 6.12376 5.50094 6.53745L5.75094 11.5375C5.77162 11.9511 6.12376 12.2697 6.53745 12.2491C6.95115 12.2284 7.26975 11.8762 7.24906 11.4625L6.99906 6.46255ZM10.4991 6.53745C10.5197 6.12376 10.2011 5.77162 9.78745 5.75094C9.37376 5.73025 9.02162 6.04885 9.00094 6.46255L8.75094 11.4625C8.73025 11.8762 9.04885 12.2284 9.46255 12.2491C9.87624 12.2697 10.2284 11.9511 10.2491 11.5375L10.4991 6.53745Z" fill="#333333"/>
</svg>
