<svg width="16" height="16" viewBox="0 0 16 16" fill="none" xmlns="http://www.w3.org/2000/svg">
<path d="M13.414 3.50897L12.491 2.58603C12.116 2.21048 11.6075 2 11.077 2H3.37503C2.61551 2 2 2.61551 2 3.37503V12.625C2 13.3845 2.61551 14 3.37503 14H12.625C13.3845 14 14 13.3845 14 12.625V4.923C14 4.39246 13.7895 3.88397 13.414 3.50897V3.50897ZM3.99997 5.12497V3.875C3.99997 3.668 4.16797 3.5 4.37497 3.5H9.62497C9.83197 3.5 9.99997 3.668 9.99997 3.875V5.12497C9.99997 5.33197 9.83197 5.49997 9.62497 5.49997H4.37497C4.16797 5.49997 3.99997 5.33197 3.99997 5.12497ZM8 12C6.75754 12 5.75 10.9925 5.75 9.75003C5.75 8.50748 6.75754 7.50003 8 7.50003C9.24246 7.50003 10.25 8.50748 10.25 9.75003C10.25 10.9925 9.24246 12 8 12Z" fill="#333333"/>
</svg>
