<svg width="135" height="28" viewBox="0 0 135 28" fill="none" xmlns="http://www.w3.org/2000/svg">
<path d="M40.6198 21.3C39.5798 21.3 38.6465 21.14 37.8198 20.82C36.9931 20.5 36.2931 20.0333 35.7198 19.42C35.1465 18.7933 34.7065 18.0333 34.3998 17.14C34.0931 16.2467 33.9398 15.22 33.9398 14.06C33.9398 12.9 34.1131 11.8733 34.4598 10.98C34.8198 10.0867 35.3065 9.33333 35.9198 8.72C36.5331 8.09333 37.2531 7.62 38.0798 7.3C38.9065 6.98 39.7931 6.82 40.7398 6.82C41.3131 6.82 41.8331 6.86667 42.2998 6.96C42.7665 7.04 43.1731 7.13333 43.5198 7.24C43.8665 7.34667 44.1531 7.46 44.3798 7.58C44.6065 7.7 44.7665 7.78667 44.8598 7.84L44.1198 9.9C43.7998 9.7 43.3398 9.51333 42.7398 9.34C42.1531 9.15333 41.5131 9.06 40.8198 9.06C40.2198 9.06 39.6598 9.16667 39.1398 9.38C38.6198 9.58 38.1665 9.88667 37.7798 10.3C37.4065 10.7133 37.1131 11.2333 36.8998 11.86C36.6865 12.4867 36.5798 13.2133 36.5798 14.04C36.5798 14.7733 36.6598 15.4467 36.8198 16.06C36.9931 16.6733 37.2531 17.2067 37.5998 17.66C37.9465 18.1 38.3865 18.4467 38.9198 18.7C39.4531 18.94 40.0931 19.06 40.8398 19.06C41.7331 19.06 42.4598 18.9733 43.0198 18.8C43.5798 18.6133 44.0131 18.44 44.3198 18.28L44.9998 20.34C44.8398 20.4467 44.6198 20.5533 44.3398 20.66C44.0731 20.7667 43.7531 20.8733 43.3798 20.98C43.0065 21.0733 42.5865 21.1467 42.1198 21.2C41.6531 21.2667 41.1531 21.3 40.6198 21.3ZM55.1003 7.6C54.9669 7.62667 54.8203 7.65333 54.6603 7.68C54.5136 7.70667 54.3336 7.73333 54.1203 7.76C53.9069 7.78667 53.6536 7.82 53.3603 7.86C53.0803 7.88667 52.7536 7.92 52.3803 7.96C51.8069 8.02667 51.2936 8.14 50.8403 8.3C50.3869 8.44667 49.9936 8.66667 49.6603 8.96C49.3269 9.24 49.0536 9.6 48.8403 10.04C48.6269 10.48 48.4736 11.0133 48.3803 11.64C48.7936 11.3733 49.2403 11.1667 49.7203 11.02C50.2136 10.8733 50.6936 10.8 51.1603 10.8C52.5469 10.8 53.6469 11.24 54.4603 12.12C55.2736 13 55.6803 14.2733 55.6803 15.94C55.6803 16.74 55.5669 17.4667 55.3403 18.12C55.1136 18.7733 54.7869 19.3333 54.3603 19.8C53.9336 20.2667 53.4203 20.6333 52.8203 20.9C52.2203 21.1533 51.5403 21.28 50.7803 21.28C49.8336 21.28 49.0403 21.1267 48.4003 20.82C47.7603 20.5 47.2469 20.0533 46.8603 19.48C46.4736 18.8933 46.1936 18.1933 46.0203 17.38C45.8469 16.5667 45.7603 15.66 45.7603 14.66C45.7603 13.3533 45.8669 12.2 46.0803 11.2C46.3069 10.1867 46.6669 9.32 47.1603 8.6C47.6669 7.88 48.3203 7.3 49.1203 6.86C49.9336 6.40667 50.9203 6.09333 52.0803 5.92C52.6803 5.82667 53.1803 5.75333 53.5803 5.7C53.9936 5.64667 54.4069 5.57333 54.8203 5.48L55.1003 7.6ZM48.3003 13.76C48.2736 13.9333 48.2603 14.1467 48.2603 14.4C48.2603 14.64 48.2603 14.8667 48.2603 15.08C48.2603 15.68 48.3003 16.2333 48.3803 16.74C48.4603 17.2467 48.6003 17.68 48.8003 18.04C49.0003 18.4 49.2603 18.68 49.5803 18.88C49.9003 19.08 50.3003 19.18 50.7803 19.18C51.1936 19.18 51.5536 19.1 51.8603 18.94C52.1669 18.78 52.4203 18.5533 52.6203 18.26C52.8203 17.9667 52.9669 17.6267 53.0603 17.24C53.1669 16.84 53.2203 16.4067 53.2203 15.94C53.2203 15.54 53.1736 15.16 53.0803 14.8C53.0003 14.4267 52.8603 14.1 52.6603 13.82C52.4736 13.5267 52.2203 13.2933 51.9003 13.12C51.5803 12.9467 51.1869 12.86 50.7203 12.86C50.2669 12.86 49.8136 12.94 49.3603 13.1C48.9203 13.26 48.5669 13.48 48.3003 13.76ZM56.9106 15.82C56.9106 14.9 57.0439 14.0933 57.3106 13.4C57.5906 12.7067 57.9573 12.1333 58.4106 11.68C58.8639 11.2133 59.3839 10.8667 59.9706 10.64C60.5573 10.4 61.1573 10.28 61.7706 10.28C63.2106 10.28 64.3306 10.7267 65.1306 11.62C65.9439 12.5133 66.3506 13.8467 66.3506 15.62C66.3506 15.7533 66.3439 15.9067 66.3306 16.08C66.3306 16.24 66.3239 16.3867 66.3106 16.52H59.4106C59.4773 17.36 59.7706 18.0133 60.2906 18.48C60.8239 18.9333 61.5906 19.16 62.5906 19.16C63.1773 19.16 63.7106 19.1067 64.1906 19C64.6839 18.8933 65.0706 18.78 65.3506 18.66L65.6706 20.64C65.5373 20.7067 65.3506 20.78 65.1106 20.86C64.8839 20.9267 64.6173 20.9867 64.3106 21.04C64.0173 21.1067 63.6973 21.16 63.3506 21.2C63.0039 21.24 62.6506 21.26 62.2906 21.26C61.3706 21.26 60.5706 21.1267 59.8906 20.86C59.2106 20.58 58.6506 20.2 58.2106 19.72C57.7706 19.2267 57.4439 18.6533 57.2306 18C57.0173 17.3333 56.9106 16.6067 56.9106 15.82ZM63.9306 14.74C63.9306 14.4067 63.8839 14.0933 63.7906 13.8C63.6973 13.4933 63.5573 13.2333 63.3706 13.02C63.1973 12.7933 62.9773 12.62 62.7106 12.5C62.4573 12.3667 62.1506 12.3 61.7906 12.3C61.4173 12.3 61.0906 12.3733 60.8106 12.52C60.5306 12.6533 60.2906 12.8333 60.0906 13.06C59.9039 13.2867 59.7573 13.5467 59.6506 13.84C59.5439 14.1333 59.4706 14.4333 59.4306 14.74H63.9306ZM75.1564 15.82C75.1564 14.74 74.9097 13.9 74.4164 13.3C73.9364 12.7 73.1564 12.4 72.0764 12.4C71.8497 12.4 71.6097 12.4133 71.3564 12.44C71.1164 12.4533 70.8764 12.4933 70.6364 12.56V18.54C70.8497 18.6867 71.1297 18.8267 71.4764 18.96C71.8364 19.08 72.2164 19.14 72.6164 19.14C73.4964 19.14 74.1364 18.84 74.5364 18.24C74.9497 17.64 75.1564 16.8333 75.1564 15.82ZM77.6364 15.78C77.6364 16.58 77.5297 17.3133 77.3164 17.98C77.1164 18.6467 76.823 19.22 76.4364 19.7C76.0497 20.18 75.563 20.5533 74.9764 20.82C74.403 21.0867 73.7497 21.22 73.0164 21.22C72.523 21.22 72.0697 21.16 71.6564 21.04C71.243 20.92 70.903 20.7867 70.6364 20.64V24.7H68.2164V10.88C68.7097 10.7467 69.3164 10.62 70.0364 10.5C70.7564 10.38 71.5164 10.32 72.3164 10.32C73.143 10.32 73.883 10.4467 74.5364 10.7C75.1897 10.9533 75.743 11.32 76.1964 11.8C76.663 12.2667 77.0164 12.84 77.2564 13.52C77.5097 14.1867 77.6364 14.94 77.6364 15.78ZM91.7984 21C91.4517 20.4667 91.0517 19.9067 90.5984 19.32C90.1451 18.7333 89.6651 18.1667 89.1584 17.62C88.6651 17.0733 88.1517 16.5533 87.6184 16.06C87.0851 15.5667 86.5584 15.14 86.0384 14.78V21H83.5184V7.14H86.0384V12.86C86.4784 12.42 86.9384 11.9533 87.4184 11.46C87.8984 10.9533 88.3717 10.4467 88.8384 9.94C89.3184 9.42 89.7717 8.92 90.1984 8.44C90.6251 7.96 91.0117 7.52667 91.3584 7.14H94.3784C93.9384 7.64667 93.4717 8.17333 92.9784 8.72C92.4851 9.26667 91.9784 9.82 91.4584 10.38C90.9384 10.9267 90.4117 11.4733 89.8784 12.02C89.3584 12.5667 88.8451 13.0867 88.3384 13.58C88.8984 14.0067 89.4651 14.5067 90.0384 15.08C90.6251 15.64 91.1984 16.2467 91.7584 16.9C92.3184 17.54 92.8517 18.2133 93.3584 18.92C93.8784 19.6133 94.3517 20.3067 94.7784 21H91.7984ZM100.275 12.54C100.262 13.1267 100.242 13.74 100.215 14.38C100.188 15.0067 100.122 15.6267 100.015 16.24C99.9216 16.8533 99.7683 17.44 99.555 18C99.3416 18.56 99.0416 19.0667 98.655 19.52C98.2816 19.96 97.8083 20.3333 97.235 20.64C96.675 20.9333 95.9883 21.12 95.175 21.2L94.835 19.18C95.515 19.0467 96.0416 18.8333 96.415 18.54C96.7883 18.2333 97.075 17.8467 97.275 17.38C97.435 17.0333 97.555 16.64 97.635 16.2C97.7283 15.76 97.795 15.3 97.835 14.82C97.8883 14.3267 97.9216 13.8267 97.935 13.32C97.9483 12.8133 97.955 12.32 97.955 11.84V10.54H105.355V21H102.935V12.54H100.275ZM111.421 19.3C112.167 19.3 112.734 19.26 113.121 19.18V16.5C112.987 16.46 112.794 16.42 112.541 16.38C112.287 16.34 112.007 16.32 111.701 16.32C111.434 16.32 111.161 16.34 110.881 16.38C110.614 16.42 110.367 16.4933 110.141 16.6C109.927 16.7067 109.754 16.86 109.621 17.06C109.487 17.2467 109.421 17.4867 109.421 17.78C109.421 18.3533 109.601 18.7533 109.961 18.98C110.321 19.1933 110.807 19.3 111.421 19.3ZM111.221 10.28C112.021 10.28 112.694 10.38 113.241 10.58C113.787 10.78 114.221 11.06 114.541 11.42C114.874 11.78 115.107 12.22 115.241 12.74C115.387 13.2467 115.461 13.8067 115.461 14.42V20.76C115.087 20.84 114.521 20.9333 113.761 21.04C113.014 21.16 112.167 21.22 111.221 21.22C110.594 21.22 110.021 21.16 109.501 21.04C108.981 20.92 108.534 20.7267 108.161 20.46C107.801 20.1933 107.514 19.8467 107.301 19.42C107.101 18.9933 107.001 18.4667 107.001 17.84C107.001 17.24 107.114 16.7333 107.341 16.32C107.581 15.9067 107.901 15.5733 108.301 15.32C108.701 15.0533 109.161 14.8667 109.681 14.76C110.214 14.64 110.767 14.58 111.341 14.58C111.607 14.58 111.887 14.6 112.181 14.64C112.474 14.6667 112.787 14.72 113.121 14.8V14.4C113.121 14.12 113.087 13.8533 113.021 13.6C112.954 13.3467 112.834 13.1267 112.661 12.94C112.501 12.74 112.281 12.5867 112.001 12.48C111.734 12.3733 111.394 12.32 110.981 12.32C110.421 12.32 109.907 12.36 109.441 12.44C108.974 12.52 108.594 12.6133 108.301 12.72L108.001 10.76C108.307 10.6533 108.754 10.5467 109.341 10.44C109.927 10.3333 110.554 10.28 111.221 10.28ZM117.144 15.78C117.144 15.0067 117.264 14.2867 117.504 13.62C117.744 12.94 118.084 12.3533 118.524 11.86C118.978 11.3667 119.524 10.98 120.164 10.7C120.804 10.42 121.524 10.28 122.324 10.28C123.311 10.28 124.244 10.46 125.124 10.82L124.604 12.8C124.324 12.68 124.004 12.58 123.644 12.5C123.298 12.42 122.924 12.38 122.524 12.38C121.578 12.38 120.858 12.68 120.364 13.28C119.871 13.8667 119.624 14.7 119.624 15.78C119.624 16.82 119.858 17.6467 120.324 18.26C120.791 18.86 121.578 19.16 122.684 19.16C123.098 19.16 123.504 19.12 123.904 19.04C124.304 18.96 124.651 18.86 124.944 18.74L125.284 20.74C125.018 20.8733 124.611 20.9933 124.064 21.1C123.531 21.2067 122.978 21.26 122.404 21.26C121.511 21.26 120.731 21.1267 120.064 20.86C119.411 20.58 118.864 20.2 118.424 19.72C117.998 19.2267 117.678 18.6467 117.464 17.98C117.251 17.3 117.144 16.5667 117.144 15.78ZM125.878 15.78C125.878 15.0067 125.998 14.2867 126.238 13.62C126.478 12.94 126.818 12.3533 127.258 11.86C127.711 11.3667 128.258 10.98 128.898 10.7C129.538 10.42 130.258 10.28 131.058 10.28C132.044 10.28 132.978 10.46 133.858 10.82L133.338 12.8C133.058 12.68 132.738 12.58 132.378 12.5C132.031 12.42 131.658 12.38 131.258 12.38C130.311 12.38 129.591 12.68 129.098 13.28C128.604 13.8667 128.358 14.7 128.358 15.78C128.358 16.82 128.591 17.6467 129.058 18.26C129.524 18.86 130.311 19.16 131.418 19.16C131.831 19.16 132.238 19.12 132.638 19.04C133.038 18.96 133.384 18.86 133.678 18.74L134.018 20.74C133.751 20.8733 133.344 20.9933 132.798 21.1C132.264 21.2067 131.711 21.26 131.138 21.26C130.244 21.26 129.464 21.1267 128.798 20.86C128.144 20.58 127.598 20.2 127.158 19.72C126.731 19.2267 126.411 18.6467 126.198 17.98C125.984 17.3 125.878 16.5667 125.878 15.78Z" fill="#333333"/>
<path d="M10.3 0.25C10.3 0.25 3.8625 2.825 3.8625 13.125C3.8625 17.1163 4.841 20.5281 6.01263 23.2061C6.2185 23.6575 6.55039 24.0398 6.96838 24.307C7.38636 24.5743 7.87265 24.7151 8.36875 24.7125H12.2313C12.7274 24.7151 13.2136 24.5743 13.6316 24.307C14.0496 24.0398 14.3815 23.6575 14.5874 23.2061C15.7719 20.5281 16.7375 17.1163 16.7375 13.125C16.7375 2.825 10.3 0.25 10.3 0.25ZM12.2313 22.1375H8.36875C7.08125 19.2535 6.4375 16.2279 6.4375 13.125C6.4375 7.151 8.88375 4.37 10.3 3.24987C11.7163 4.37 14.1625 7.151 14.1625 13.125C14.1625 16.2279 13.5188 19.2535 12.2313 22.1375ZM20.6 26L15.6302 24.0044C16.5315 22.0345 17.1752 20.0002 17.5744 17.9274L20.6 26ZM4.96975 24.0044L0 26L3.02562 17.9274C3.42475 20.0002 4.0685 22.0345 4.96975 24.0044V24.0044ZM10.3 13.125C8.88375 13.125 7.725 11.9663 7.725 10.55C7.725 9.13375 8.88375 7.975 10.3 7.975C11.7163 7.975 12.875 9.13375 12.875 10.55C12.875 11.9663 11.7163 13.125 10.3 13.125Z" fill="#333333"/>
</svg>
