<svg width="148" height="17" viewBox="0 0 148 17" fill="none" xmlns="http://www.w3.org/2000/svg">
<path d="M4.94 14.62C6.96667 14.62 7.98 13.9267 7.98 12.54C7.98 12.1133 7.88667 11.7533 7.7 11.46C7.52667 11.1533 7.28667 10.8933 6.98 10.68C6.67333 10.4533 6.32 10.26 5.92 10.1C5.53333 9.94 5.12 9.78 4.68 9.62C4.17333 9.44667 3.69333 9.25333 3.24 9.04C2.78667 8.81333 2.39333 8.55333 2.06 8.26C1.72667 7.95333 1.46 7.59333 1.26 7.18C1.07333 6.76667 0.98 6.26667 0.98 5.68C0.98 4.46667 1.39333 3.52 2.22 2.84C3.04667 2.16 4.18667 1.82 5.64 1.82C6.48 1.82 7.24 1.91333 7.92 2.1C8.61333 2.27333 9.12 2.46667 9.44 2.68L8.82 4.26C8.54 4.08667 8.12 3.92 7.56 3.76C7.01333 3.58667 6.37333 3.5 5.64 3.5C5.26667 3.5 4.92 3.54 4.6 3.62C4.28 3.7 4 3.82 3.76 3.98C3.52 4.14 3.32667 4.34667 3.18 4.6C3.04667 4.84 2.98 5.12667 2.98 5.46C2.98 5.83333 3.05333 6.14667 3.2 6.4C3.34667 6.65333 3.55333 6.88 3.82 7.08C4.08667 7.26667 4.39333 7.44 4.74 7.6C5.1 7.76 5.49333 7.92 5.92 8.08C6.52 8.32 7.06667 8.56 7.56 8.8C8.06667 9.04 8.5 9.32667 8.86 9.66C9.23333 9.99333 9.52 10.3933 9.72 10.86C9.92 11.3133 10.02 11.8667 10.02 12.52C10.02 13.7333 9.57333 14.6667 8.68 15.32C7.8 15.9733 6.55333 16.3 4.94 16.3C4.39333 16.3 3.88667 16.26 3.42 16.18C2.96667 16.1133 2.56 16.0333 2.2 15.94C1.84 15.8333 1.52667 15.7267 1.26 15.62C1.00667 15.5 0.806667 15.4 0.66 15.32L1.24 13.72C1.54667 13.8933 2.01333 14.0867 2.64 14.3C3.26667 14.5133 4.03333 14.62 4.94 14.62ZM11.5445 5.9C11.9712 5.79333 12.5312 5.68 13.2245 5.56C13.9312 5.44 14.7445 5.38 15.6645 5.38C16.3312 5.38 16.8912 5.47333 17.3445 5.66C17.7979 5.83333 18.1779 6.09333 18.4845 6.44C18.5779 6.37333 18.7245 6.28 18.9245 6.16C19.1245 6.04 19.3712 5.92667 19.6645 5.82C19.9579 5.7 20.2845 5.6 20.6445 5.52C21.0045 5.42667 21.3912 5.38 21.8045 5.38C22.6045 5.38 23.2579 5.5 23.7645 5.74C24.2712 5.96667 24.6645 6.29333 24.9445 6.72C25.2379 7.14667 25.4312 7.65333 25.5245 8.24C25.6312 8.82667 25.6845 9.46667 25.6845 10.16V16H23.8245V10.56C23.8245 9.94667 23.7912 9.42 23.7245 8.98C23.6712 8.54 23.5579 8.17333 23.3845 7.88C23.2245 7.58667 22.9979 7.37333 22.7045 7.24C22.4245 7.09333 22.0579 7.02 21.6045 7.02C20.9779 7.02 20.4579 7.10667 20.0445 7.28C19.6445 7.44 19.3712 7.58667 19.2245 7.72C19.3312 8.06667 19.4112 8.44667 19.4645 8.86C19.5179 9.27333 19.5445 9.70667 19.5445 10.16V16H17.6845V10.56C17.6845 9.94667 17.6512 9.42 17.5845 8.98C17.5179 8.54 17.3979 8.17333 17.2245 7.88C17.0645 7.58667 16.8379 7.37333 16.5445 7.24C16.2645 7.09333 15.9045 7.02 15.4645 7.02C15.2779 7.02 15.0779 7.02667 14.8645 7.04C14.6512 7.05333 14.4445 7.07333 14.2445 7.1C14.0579 7.11333 13.8845 7.13333 13.7245 7.16C13.5645 7.18667 13.4579 7.20667 13.4045 7.22V16H11.5445V5.9ZM31.5911 14.66C32.0311 14.66 32.4178 14.6533 32.7511 14.64C33.0978 14.6133 33.3844 14.5733 33.6111 14.52V11.42C33.4778 11.3533 33.2578 11.3 32.9511 11.26C32.6578 11.2067 32.2978 11.18 31.8711 11.18C31.5911 11.18 31.2911 11.2 30.9711 11.24C30.6644 11.28 30.3778 11.3667 30.1111 11.5C29.8578 11.62 29.6444 11.7933 29.4711 12.02C29.2978 12.2333 29.2111 12.52 29.2111 12.88C29.2111 13.5467 29.4244 14.0133 29.8511 14.28C30.2778 14.5333 30.8578 14.66 31.5911 14.66ZM31.4311 5.34C32.1778 5.34 32.8044 5.44 33.3111 5.64C33.8311 5.82667 34.2444 6.1 34.5511 6.46C34.8711 6.80667 35.0978 7.22667 35.2311 7.72C35.3644 8.2 35.4311 8.73333 35.4311 9.32V15.82C35.2711 15.8467 35.0444 15.8867 34.7511 15.94C34.4711 15.98 34.1511 16.02 33.7911 16.06C33.4311 16.1 33.0378 16.1333 32.6111 16.16C32.1978 16.2 31.7844 16.22 31.3711 16.22C30.7844 16.22 30.2444 16.16 29.7511 16.04C29.2578 15.92 28.8311 15.7333 28.4711 15.48C28.1111 15.2133 27.8311 14.8667 27.6311 14.44C27.4311 14.0133 27.3311 13.5 27.3311 12.9C27.3311 12.3267 27.4444 11.8333 27.6711 11.42C27.9111 11.0067 28.2311 10.6733 28.6311 10.42C29.0311 10.1667 29.4978 9.98 30.0311 9.86C30.5644 9.74 31.1244 9.68 31.7111 9.68C31.8978 9.68 32.0911 9.69333 32.2911 9.72C32.4911 9.73333 32.6778 9.76 32.8511 9.8C33.0378 9.82667 33.1978 9.85333 33.3311 9.88C33.4644 9.90667 33.5578 9.92667 33.6111 9.94V9.42C33.6111 9.11333 33.5778 8.81333 33.5111 8.52C33.4444 8.21333 33.3244 7.94667 33.1511 7.72C32.9778 7.48 32.7378 7.29333 32.4311 7.16C32.1378 7.01333 31.7511 6.94 31.2711 6.94C30.6578 6.94 30.1178 6.98667 29.6511 7.08C29.1978 7.16 28.8578 7.24667 28.6311 7.34L28.4111 5.8C28.6511 5.69333 29.0511 5.59333 29.6111 5.5C30.1711 5.39333 30.7778 5.34 31.4311 5.34ZM41.6603 5.38C41.8203 5.38 42.0003 5.39333 42.2003 5.42C42.4136 5.43333 42.6203 5.46 42.8203 5.5C43.0203 5.52667 43.2003 5.56 43.3603 5.6C43.5336 5.62667 43.6603 5.65333 43.7403 5.68L43.4203 7.3C43.2736 7.24667 43.027 7.18667 42.6803 7.12C42.347 7.04 41.9136 7 41.3803 7C41.0336 7 40.687 7.04 40.3403 7.12C40.007 7.18667 39.787 7.23333 39.6803 7.26V16H37.8203V6.04C38.2603 5.88 38.807 5.73333 39.4603 5.6C40.1136 5.45333 40.847 5.38 41.6603 5.38ZM46.5752 5.6H50.5152V7.16H46.5752V11.96C46.5752 12.48 46.6152 12.9133 46.6952 13.26C46.7752 13.5933 46.8952 13.86 47.0552 14.06C47.2152 14.2467 47.4152 14.38 47.6552 14.46C47.8952 14.54 48.1752 14.58 48.4952 14.58C49.0552 14.58 49.5018 14.52 49.8352 14.4C50.1818 14.2667 50.4218 14.1733 50.5552 14.12L50.9152 15.66C50.7285 15.7533 50.4018 15.8667 49.9352 16C49.4685 16.1467 48.9352 16.22 48.3352 16.22C47.6285 16.22 47.0418 16.1333 46.5752 15.96C46.1218 15.7733 45.7552 15.5 45.4752 15.14C45.1952 14.78 44.9952 14.34 44.8752 13.82C44.7685 13.2867 44.7152 12.6733 44.7152 11.98V2.7L46.5752 2.38V5.6ZM52.302 16V2.14H60.662V3.8H54.242V7.98H59.942V9.62H54.242V16H52.302ZM65.3442 16.2C64.1976 16.1733 63.3842 15.9267 62.9042 15.46C62.4242 14.9933 62.1842 14.2667 62.1842 13.28V0.799999L64.0442 0.48V12.98C64.0442 13.2867 64.0709 13.54 64.1242 13.74C64.1776 13.94 64.2642 14.1 64.3842 14.22C64.5042 14.34 64.6642 14.4333 64.8642 14.5C65.0642 14.5533 65.3109 14.6 65.6042 14.64L65.3442 16.2ZM76.173 10.8C76.173 11.6267 76.053 12.3733 75.813 13.04C75.573 13.7067 75.233 14.28 74.793 14.76C74.3663 15.24 73.853 15.6133 73.253 15.88C72.653 16.1333 71.9996 16.26 71.293 16.26C70.5863 16.26 69.933 16.1333 69.333 15.88C68.733 15.6133 68.213 15.24 67.773 14.76C67.3463 14.28 67.013 13.7067 66.773 13.04C66.533 12.3733 66.413 11.6267 66.413 10.8C66.413 9.98667 66.533 9.24667 66.773 8.58C67.013 7.9 67.3463 7.32 67.773 6.84C68.213 6.36 68.733 5.99333 69.333 5.74C69.933 5.47333 70.5863 5.34 71.293 5.34C71.9996 5.34 72.653 5.47333 73.253 5.74C73.853 5.99333 74.3663 6.36 74.793 6.84C75.233 7.32 75.573 7.9 75.813 8.58C76.053 9.24667 76.173 9.98667 76.173 10.8ZM74.233 10.8C74.233 9.62667 73.9663 8.7 73.433 8.02C72.913 7.32667 72.1996 6.98 71.293 6.98C70.3863 6.98 69.6663 7.32667 69.133 8.02C68.613 8.7 68.353 9.62667 68.353 10.8C68.353 11.9733 68.613 12.9067 69.133 13.6C69.6663 14.28 70.3863 14.62 71.293 14.62C72.1996 14.62 72.913 14.28 73.433 13.6C73.9663 12.9067 74.233 11.9733 74.233 10.8ZM86.3359 16C85.9626 15.04 85.5626 13.9467 85.1359 12.72C84.7226 11.48 84.3426 10.1933 83.9959 8.86C83.6493 10.1933 83.2693 11.48 82.8559 12.72C82.4426 13.9467 82.0493 15.04 81.6759 16H80.0559C79.4426 14.6267 78.8426 13.06 78.2559 11.3C77.6693 9.54 77.1159 7.64 76.5959 5.6H78.5959C78.7293 6.22667 78.8893 6.90667 79.0759 7.64C79.2626 8.37333 79.4559 9.10667 79.6559 9.84C79.8693 10.5733 80.0893 11.28 80.3159 11.96C80.5426 12.64 80.7559 13.2333 80.9559 13.74C81.1826 13.1133 81.4026 12.4533 81.6159 11.76C81.8426 11.0533 82.0559 10.3467 82.2559 9.64C82.4559 8.92 82.6426 8.22 82.8159 7.54C83.0026 6.84667 83.1626 6.2 83.2959 5.6H84.8359C84.9559 6.2 85.1026 6.84667 85.2759 7.54C85.4493 8.22 85.6359 8.92 85.8359 9.64C86.0359 10.3467 86.2426 11.0533 86.4559 11.76C86.6826 12.4533 86.9093 13.1133 87.1359 13.74C87.3359 13.2333 87.5426 12.64 87.7559 11.96C87.9826 11.28 88.2026 10.5733 88.4159 9.84C88.6293 9.10667 88.8293 8.37333 89.0159 7.64C89.2026 6.90667 89.3626 6.22667 89.4959 5.6H91.4159C90.8959 7.64 90.3426 9.54 89.7559 11.3C89.1693 13.06 88.5693 14.6267 87.9559 16H86.3359Z" fill="#5EA7F8"/>
<path d="M99.7136 15.12C100.794 15.12 101.634 14.9267 102.234 14.54C102.834 14.14 103.134 13.5 103.134 12.62C103.134 12.1133 103.034 11.6933 102.834 11.36C102.647 11.0133 102.394 10.7267 102.074 10.5C101.754 10.26 101.387 10.06 100.974 9.9C100.56 9.72667 100.127 9.54667 99.6736 9.36C99.1003 9.13333 98.5869 8.9 98.1336 8.66C97.6803 8.42 97.2936 8.15333 96.9736 7.86C96.6536 7.55333 96.4069 7.20667 96.2336 6.82C96.0736 6.43333 95.9936 5.98 95.9936 5.46C95.9936 4.27333 96.3869 3.37333 97.1736 2.76C97.9603 2.14667 99.0536 1.84 100.454 1.84C100.827 1.84 101.194 1.86667 101.554 1.92C101.914 1.97333 102.247 2.04667 102.554 2.14C102.874 2.22 103.16 2.31333 103.414 2.42C103.68 2.52667 103.9 2.64 104.074 2.76L103.594 3.9C103.207 3.63333 102.734 3.42 102.174 3.26C101.627 3.1 101.034 3.02 100.394 3.02C99.9536 3.02 99.5469 3.06667 99.1736 3.16C98.8136 3.24 98.5003 3.38 98.2336 3.58C97.9669 3.76667 97.7536 4.00667 97.5936 4.3C97.4469 4.59333 97.3736 4.94667 97.3736 5.36C97.3736 5.78667 97.4536 6.14667 97.6136 6.44C97.7736 6.73333 97.9936 6.98667 98.2736 7.2C98.5669 7.41333 98.9069 7.60667 99.2936 7.78C99.6803 7.95333 100.1 8.13333 100.554 8.32C101.1 8.54667 101.614 8.77333 102.094 9C102.587 9.22667 103.014 9.49333 103.374 9.8C103.734 10.1067 104.02 10.48 104.234 10.92C104.447 11.36 104.554 11.9 104.554 12.54C104.554 13.7933 104.114 14.7333 103.234 15.36C102.367 15.9867 101.187 16.3 99.6936 16.3C99.1603 16.3 98.6736 16.2667 98.2336 16.2C97.7936 16.1333 97.4003 16.0533 97.0536 15.96C96.7069 15.8533 96.4136 15.7467 96.1736 15.64C95.9336 15.5333 95.7469 15.44 95.6136 15.36L96.0536 14.18C96.1869 14.26 96.3669 14.3533 96.5936 14.46C96.8203 14.5667 97.0869 14.6733 97.3936 14.78C97.7003 14.8733 98.0469 14.9533 98.4336 15.02C98.8203 15.0867 99.2469 15.12 99.7136 15.12ZM107.506 5.66H111.626V6.76H107.506V12.26C107.506 12.8467 107.552 13.3267 107.646 13.7C107.752 14.06 107.899 14.34 108.086 14.54C108.272 14.74 108.499 14.8733 108.766 14.94C109.032 15.0067 109.326 15.04 109.646 15.04C110.192 15.04 110.632 14.98 110.966 14.86C111.299 14.7267 111.559 14.6067 111.746 14.5L112.066 15.58C111.879 15.7 111.552 15.84 111.086 16C110.619 16.1467 110.112 16.22 109.566 16.22C108.926 16.22 108.386 16.14 107.946 15.98C107.519 15.8067 107.172 15.5533 106.906 15.22C106.652 14.8733 106.472 14.4467 106.366 13.94C106.259 13.4333 106.206 12.8333 106.206 12.14V2.62L107.506 2.38V5.66ZM121.26 15.64C120.873 15.7467 120.353 15.8667 119.7 16C119.047 16.1333 118.247 16.2 117.3 16.2C116.527 16.2 115.88 16.0867 115.36 15.86C114.84 15.6333 114.42 15.3133 114.1 14.9C113.78 14.4867 113.547 13.9867 113.4 13.4C113.267 12.8133 113.2 12.1667 113.2 11.46V5.66H114.5V11.04C114.5 11.7733 114.553 12.3933 114.66 12.9C114.767 13.4067 114.94 13.82 115.18 14.14C115.42 14.4467 115.727 14.6733 116.1 14.82C116.487 14.9533 116.953 15.02 117.5 15.02C118.113 15.02 118.647 14.9867 119.1 14.92C119.553 14.8533 119.84 14.7933 119.96 14.74V5.66H121.26V15.64ZM132.227 15.68C131.84 15.8133 131.347 15.94 130.747 16.06C130.147 16.18 129.387 16.24 128.467 16.24C127.707 16.24 127.013 16.12 126.387 15.88C125.773 15.6267 125.24 15.2667 124.787 14.8C124.347 14.3333 124 13.7667 123.747 13.1C123.507 12.4333 123.387 11.68 123.387 10.84C123.387 10.0533 123.487 9.33333 123.687 8.68C123.9 8.01333 124.207 7.44 124.607 6.96C125.007 6.48 125.493 6.10667 126.067 5.84C126.653 5.57333 127.32 5.44 128.067 5.44C128.747 5.44 129.333 5.54 129.827 5.74C130.333 5.92667 130.7 6.10667 130.927 6.28V0.719999L132.227 0.48V15.68ZM130.927 7.54C130.807 7.44667 130.653 7.34667 130.467 7.24C130.293 7.13333 130.087 7.03333 129.847 6.94C129.607 6.84667 129.347 6.77333 129.067 6.72C128.787 6.65333 128.493 6.62 128.187 6.62C127.547 6.62 127.007 6.73333 126.567 6.96C126.14 7.18667 125.793 7.49333 125.527 7.88C125.26 8.25333 125.067 8.7 124.947 9.22C124.827 9.72667 124.767 10.2667 124.767 10.84C124.767 12.2 125.107 13.2467 125.787 13.98C126.467 14.7 127.367 15.06 128.487 15.06C129.127 15.06 129.64 15.0333 130.027 14.98C130.427 14.9133 130.727 14.8467 130.927 14.78V7.54ZM136.267 16H134.967V5.66H136.267V16ZM136.567 2.54C136.567 2.84667 136.474 3.09333 136.287 3.28C136.1 3.45333 135.874 3.54 135.607 3.54C135.34 3.54 135.114 3.45333 134.927 3.28C134.74 3.09333 134.647 2.84667 134.647 2.54C134.647 2.23333 134.74 1.99333 134.927 1.82C135.114 1.63333 135.34 1.54 135.607 1.54C135.874 1.54 136.1 1.63333 136.287 1.82C136.474 1.99333 136.567 2.23333 136.567 2.54ZM147.833 10.84C147.833 11.6533 147.713 12.3933 147.473 13.06C147.246 13.7267 146.92 14.2933 146.493 14.76C146.08 15.2267 145.586 15.5933 145.013 15.86C144.44 16.1133 143.806 16.24 143.113 16.24C142.42 16.24 141.786 16.1133 141.213 15.86C140.64 15.5933 140.14 15.2267 139.713 14.76C139.3 14.2933 138.973 13.7267 138.733 13.06C138.506 12.3933 138.393 11.6533 138.393 10.84C138.393 10.0267 138.506 9.28667 138.733 8.62C138.973 7.95333 139.3 7.38667 139.713 6.92C140.14 6.44 140.64 6.07333 141.213 5.82C141.786 5.55333 142.42 5.42 143.113 5.42C143.806 5.42 144.44 5.55333 145.013 5.82C145.586 6.07333 146.08 6.44 146.493 6.92C146.92 7.38667 147.246 7.95333 147.473 8.62C147.713 9.28667 147.833 10.0267 147.833 10.84ZM146.453 10.84C146.453 9.54667 146.153 8.52 145.553 7.76C144.953 6.98667 144.14 6.6 143.113 6.6C142.086 6.6 141.273 6.98667 140.673 7.76C140.073 8.52 139.773 9.54667 139.773 10.84C139.773 12.1333 140.073 13.16 140.673 13.92C141.273 14.68 142.086 15.06 143.113 15.06C144.14 15.06 144.953 14.68 145.553 13.92C146.153 13.16 146.453 12.1333 146.453 10.84Z" fill="#666666"/>
</svg>
